<svg width="24" height="14" viewBox="0 0 24 14" fill="none" xmlns="http://www.w3.org/2000/svg">
<path d="M11.2459 10.0399H12.3116V8.97424H11.2459V10.0399ZM11.7787 1.5144C11.079 1.5144 10.3861 1.65223 9.7396 1.92001C9.09312 2.18779 8.50572 2.58028 8.01092 3.07507C7.01165 4.07435 6.45026 5.42966 6.45026 6.84286C6.45026 8.25605 7.01165 9.61137 8.01092 10.6106C8.50572 11.1054 9.09312 11.4979 9.7396 11.7657C10.3861 12.0335 11.079 12.1713 11.7787 12.1713C13.1919 12.1713 14.5472 11.6099 15.5465 10.6106C16.5458 9.61137 17.1072 8.25605 17.1072 6.84286C17.1072 6.14312 16.9693 5.45023 16.7016 4.80375C16.4338 4.15727 16.0413 3.56987 15.5465 3.07507C15.0517 2.58028 14.4643 2.18779 13.8178 1.92001C13.1713 1.65223 12.4785 1.5144 11.7787 1.5144ZM11.7787 11.1056C9.42886 11.1056 7.51595 9.19271 7.51595 6.84286C7.51595 4.49301 9.42886 2.5801 11.7787 2.5801C14.1286 2.5801 16.0415 4.49301 16.0415 6.84286C16.0415 9.19271 14.1286 11.1056 11.7787 11.1056ZM11.7787 3.64579C11.2134 3.64579 10.6713 3.87034 10.2716 4.27005C9.87188 4.66976 9.64733 5.21189 9.64733 5.77717H10.713C10.713 5.49453 10.8253 5.22347 11.0252 5.02361C11.225 4.82375 11.4961 4.71148 11.7787 4.71148C12.0613 4.71148 12.3324 4.82375 12.5323 5.02361C12.7321 5.22347 12.8444 5.49453 12.8444 5.77717C12.8444 6.84286 11.2459 6.70965 11.2459 8.44139H12.3116C12.3116 7.24249 13.9101 7.10928 13.9101 5.77717C13.9101 5.21189 13.6855 4.66976 13.2858 4.27005C12.8861 3.87034 12.344 3.64579 11.7787 3.64579Z" fill="#3D374E"/>
<line x1="0.112178" x2="0.112178" y2="13.237" stroke="#3D374E" stroke-width="0.224356"/>
<line x1="23.6696" y1="0.44873" x2="23.6696" y2="13.6857" stroke="#3D374E" stroke-width="0.224356"/>
</svg>
