<svg width="106" height="61" viewBox="0 0 106 61" fill="none" xmlns="http://www.w3.org/2000/svg">
<path d="M50.125 44.75H54.875V40H50.125V44.75ZM52.5 6.75C49.3811 6.75 46.2928 7.36431 43.4113 8.55786C40.5298 9.75141 37.9116 11.5008 35.7062 13.7062C31.2522 18.1602 28.75 24.2011 28.75 30.5C28.75 36.7989 31.2522 42.8398 35.7062 47.2938C37.9116 49.4992 40.5298 51.2486 43.4113 52.4421C46.2928 53.6357 49.3811 54.25 52.5 54.25C58.7989 54.25 64.8398 51.7478 69.2938 47.2938C73.7478 42.8398 76.25 36.7989 76.25 30.5C76.25 27.3811 75.6357 24.2928 74.4421 21.4113C73.2486 18.5298 71.4992 15.9116 69.2938 13.7062C67.0884 11.5008 64.4702 9.75141 61.5887 8.55786C58.7072 7.36431 55.6189 6.75 52.5 6.75ZM52.5 49.5C42.0263 49.5 33.5 40.9738 33.5 30.5C33.5 20.0263 42.0263 11.5 52.5 11.5C62.9738 11.5 71.5 20.0263 71.5 30.5C71.5 40.9738 62.9738 49.5 52.5 49.5ZM52.5 16.25C49.9804 16.25 47.5641 17.2509 45.7825 19.0325C44.0009 20.8141 43 23.2304 43 25.75H47.75C47.75 24.4902 48.2504 23.282 49.1412 22.3912C50.032 21.5004 51.2402 21 52.5 21C53.7598 21 54.968 21.5004 55.8588 22.3912C56.7496 23.282 57.25 24.4902 57.25 25.75C57.25 30.5 50.125 29.9062 50.125 37.625H54.875C54.875 32.2812 62 31.6875 62 25.75C62 23.2304 60.9991 20.8141 59.2175 19.0325C57.4359 17.2509 55.0196 16.25 52.5 16.25Z" fill="#3D374E"/>
<line x1="0.5" x2="0.5" y2="59" stroke="#3D374E"/>
<line x1="105.5" y1="2" x2="105.5" y2="61" stroke="#3D374E"/>
</svg>
