<svg width="44" height="38" viewBox="0 0 44 38" fill="none" xmlns="http://www.w3.org/2000/svg">
<ellipse cx="25.5" cy="19" rx="18.5" ry="19" fill="url(#paint0_linear_79_98)"/>
<path d="M26.3635 19.8536C26.5588 19.6583 26.5588 19.3417 26.3635 19.1464L23.1816 15.9645C22.9863 15.7692 22.6697 15.7692 22.4744 15.9645C22.2792 16.1597 22.2792 16.4763 22.4744 16.6716L25.3029 19.5L22.4744 22.3284C22.2792 22.5237 22.2792 22.8403 22.4744 23.0355C22.6697 23.2308 22.9863 23.2308 23.1816 23.0355L26.3635 19.8536ZM0.98999 20H26.01V19H0.98999V20Z" fill="black"/>
<path d="M33.9346 28.1221C31.7536 28.1221 30.0934 27.4954 28.9541 26.2422C27.8148 24.9808 27.2451 23.0765 27.2451 20.5293C27.2451 15.2884 29.5848 12.668 34.2642 12.668C34.9478 12.668 35.611 12.7412 36.2539 12.8877C36.8968 13.026 37.4176 13.201 37.8164 13.4126C38.2152 13.6242 38.4146 13.8276 38.4146 14.0229C38.4146 14.145 38.3698 14.3078 38.2803 14.5112C38.1989 14.7147 38.1012 14.8937 37.9873 15.0483C37.8734 15.203 37.7716 15.2803 37.6821 15.2803C37.6414 15.2803 37.5275 15.2274 37.3403 15.1216C36.9172 14.8937 36.4736 14.7025 36.0098 14.5479C35.5459 14.3932 34.9803 14.3159 34.313 14.3159C32.4738 14.3159 31.1636 14.8245 30.3823 15.8418C29.6011 16.8509 29.2104 18.3483 29.2104 20.334C29.2104 22.2057 29.5726 23.6991 30.2969 24.814C31.0293 25.9207 32.2907 26.4741 34.0811 26.4741C34.6263 26.4741 35.1512 26.4497 35.6558 26.4009C36.1685 26.3439 36.5754 26.2747 36.8765 26.1934V21.811H34.3374C34.1828 21.811 34.0688 21.7622 33.9956 21.6646C33.9305 21.5588 33.8979 21.3919 33.8979 21.1641V20.8101C33.8979 20.5822 33.9305 20.4194 33.9956 20.3218C34.0688 20.216 34.1828 20.1631 34.3374 20.1631H38.1338C38.3617 20.1631 38.5285 20.216 38.6343 20.3218C38.7401 20.4194 38.793 20.5822 38.793 20.8101V26.5596C38.793 27.1211 38.3372 27.5239 37.4258 27.7681C36.5143 28.0041 35.3506 28.1221 33.9346 28.1221Z" fill="black"/>
<defs>
<linearGradient id="paint0_linear_79_98" x1="15" y1="8.5" x2="23.5" y2="28.5" gradientUnits="userSpaceOnUse">
<stop stop-color="#DFF2C2"/>
<stop offset="1" stop-color="#FFD5CD"/>
</linearGradient>
</defs>
</svg>
