<svg width="54" height="14" viewBox="0 0 54 14" fill="none" xmlns="http://www.w3.org/2000/svg">
<path d="M15.9831 6.69833C15.9831 10.3048 13.1376 13.2204 9.63729 13.2204C6.13701 13.2204 3.29151 10.3048 3.29151 6.69833C3.29151 3.09183 6.13701 0.176272 9.63729 0.176272C13.1376 0.176272 15.9831 3.09183 15.9831 6.69833Z" fill="#DFF2C2" stroke="black" stroke-width="0.352544"/>
<path d="M9.93315 7.18043C10.0047 7.1144 10.0091 7.00288 9.94311 6.93135L8.86706 5.76562C8.80103 5.69409 8.68951 5.68962 8.61797 5.75566C8.54644 5.82169 8.54198 5.93321 8.60801 6.00474L9.5645 7.04094L8.5283 7.99744C8.45677 8.06347 8.45231 8.17499 8.51834 8.24652C8.58437 8.31806 8.69589 8.32252 8.76743 8.25649L9.93315 7.18043ZM0.992955 6.8745L9.80654 7.22704L9.82063 6.87478L1.00705 6.52223L0.992955 6.8745Z" fill="black"/>
<path d="M12.6109 9.2735C11.842 9.2735 11.2567 9.05259 10.855 8.61076C10.4534 8.16607 10.2526 7.49472 10.2526 6.59672C10.2526 4.74908 11.0774 3.82526 12.7271 3.82526C12.9681 3.82526 13.2019 3.85108 13.4285 3.90272C13.6552 3.9515 13.8388 4.01318 13.9794 4.08777C14.12 4.16237 14.1903 4.23409 14.1903 4.30295C14.1903 4.34598 14.1745 4.40336 14.1429 4.47509C14.1142 4.54681 14.0798 4.60993 14.0396 4.66444C13.9995 4.71895 13.9636 4.74621 13.9321 4.74621C13.9177 4.74621 13.8775 4.72756 13.8116 4.69026C13.6624 4.60993 13.506 4.54251 13.3425 4.488C13.1789 4.43349 12.9795 4.40623 12.7443 4.40623C12.0959 4.40623 11.634 4.58555 11.3586 4.94417C11.0831 5.29993 10.9454 5.82783 10.9454 6.52786C10.9454 7.18774 11.0731 7.7142 11.3284 8.10725C11.5866 8.49744 12.0313 8.69253 12.6625 8.69253C12.8547 8.69253 13.0398 8.68392 13.2177 8.66671C13.3984 8.64663 13.5419 8.62224 13.648 8.59355V7.04859H12.7529C12.6984 7.04859 12.6582 7.03137 12.6324 6.99695C12.6094 6.95965 12.598 6.90083 12.598 6.8205V6.6957C12.598 6.61537 12.6094 6.55799 12.6324 6.52356C12.6582 6.48626 12.6984 6.46761 12.7529 6.46761H14.0913C14.1716 6.46761 14.2304 6.48626 14.2677 6.52356C14.305 6.55799 14.3237 6.61537 14.3237 6.6957V8.72265C14.3237 8.92062 14.163 9.06263 13.8417 9.1487C13.5204 9.2319 13.1101 9.2735 12.6109 9.2735ZM16.4513 9.24338C16.2448 9.24338 16.1415 9.18743 16.1415 9.07554V4.10499C16.1415 4.02466 16.1601 3.96728 16.1974 3.93285C16.2347 3.89555 16.2935 3.8769 16.3739 3.8769H17.6606C18.2717 3.8769 18.7308 3.98449 19.0377 4.19966C19.3476 4.41484 19.5025 4.75769 19.5025 5.2282C19.5025 5.54666 19.4251 5.81492 19.2701 6.03296C19.1181 6.24814 18.9029 6.41023 18.6246 6.51926V6.54938C18.7738 6.60102 18.8957 6.70144 18.9904 6.85063C19.088 6.99695 19.1955 7.21499 19.3132 7.50476L19.9114 9.01529C19.9257 9.06694 19.9329 9.1028 19.9329 9.12288C19.9329 9.20321 19.8253 9.24338 19.6101 9.24338H19.5326C19.4552 9.24338 19.3878 9.23334 19.3304 9.21325C19.2759 9.1903 19.2414 9.16018 19.2271 9.12288L18.6461 7.62096C18.5715 7.42586 18.484 7.27381 18.3836 7.16478C18.2832 7.05576 18.1641 6.97973 18.0264 6.9367C17.8887 6.89366 17.7151 6.87214 17.5057 6.87214H16.8171V9.07554C16.8171 9.18743 16.7153 9.24338 16.5116 9.24338H16.4513ZM17.8242 6.29117C18.0049 6.29117 18.1699 6.24814 18.3191 6.16207C18.4711 6.076 18.5902 5.96124 18.6762 5.81778C18.7652 5.67147 18.8097 5.51654 18.8097 5.35301C18.8097 5.05176 18.7178 4.82798 18.5342 4.68166C18.3506 4.53247 18.0967 4.45788 17.7725 4.45788H16.8171V6.29117H17.8242ZM20.9373 9.24338C20.8226 9.24338 20.7394 9.23334 20.6877 9.21325C20.6361 9.1903 20.6102 9.15731 20.6102 9.11427C20.6102 9.09419 20.6174 9.05976 20.6318 9.01099L22.4435 3.98019C22.4722 3.89698 22.5741 3.85538 22.7491 3.85538H22.9729C23.1479 3.85538 23.2497 3.89698 23.2784 3.98019L25.0902 9.01529C25.1045 9.04685 25.1117 9.07985 25.1117 9.11427C25.1117 9.20034 25.0041 9.24338 24.789 9.24338H24.7244C24.5465 9.24338 24.4432 9.20321 24.4145 9.12288L23.967 7.86626H21.7206L21.2816 9.12288C21.2558 9.20321 21.1539 9.24338 20.976 9.24338H20.9373ZM23.7604 7.28528L22.96 5.00872C22.937 4.94561 22.9184 4.87388 22.904 4.79355C22.8897 4.71322 22.8768 4.63575 22.8653 4.56116H22.8481C22.8136 4.75338 22.7749 4.90257 22.7319 5.00872L21.9314 7.28528H23.7604ZM26.6455 9.24338C26.5365 9.24338 26.4576 9.23047 26.4088 9.20465C26.36 9.17596 26.3356 9.13292 26.3356 9.07554V4.02752C26.3356 3.91276 26.4389 3.85538 26.6455 3.85538H26.8047C26.8851 3.85538 26.9482 3.86686 26.9941 3.88981C27.0428 3.91276 27.0859 3.95006 27.1232 4.0017L29.5676 7.68981L29.7957 8.12016V4.02752C29.7957 3.91276 29.8961 3.85538 30.0969 3.85538H30.1572C30.358 3.85538 30.4584 3.91276 30.4584 4.02752V9.07554C30.4584 9.13292 30.434 9.17596 30.3852 9.20465C30.3365 9.23047 30.2604 9.24338 30.1572 9.24338H30.0022C29.9305 9.24338 29.8731 9.23477 29.8301 9.21756C29.7871 9.20034 29.7541 9.17309 29.7311 9.13579L27.2093 5.33149L27.0027 4.93557V9.07554C27.0027 9.18743 26.9008 9.24338 26.6971 9.24338H26.6455ZM32.5602 9.23047C32.4799 9.23047 32.4211 9.21182 32.3838 9.17452C32.3465 9.13723 32.3278 9.07985 32.3278 9.00238V4.10499C32.3278 4.02466 32.3465 3.96728 32.3838 3.93285C32.4211 3.89555 32.4799 3.8769 32.5602 3.8769H34.1052C34.8224 3.8769 35.3962 4.08921 35.8266 4.51382C36.257 4.93843 36.4721 5.61695 36.4721 6.54938C36.4721 7.48755 36.257 8.16894 35.8266 8.59355C35.3962 9.01816 34.8224 9.23047 34.1052 9.23047H32.5602ZM34.0536 8.64949C34.57 8.64949 34.986 8.48166 35.3016 8.14598C35.6172 7.80744 35.775 7.27524 35.775 6.54938C35.775 6.06165 35.7004 5.66286 35.5512 5.35301C35.402 5.04028 35.1983 4.81363 34.9401 4.67305C34.6819 4.5296 34.3864 4.45788 34.0536 4.45788H33.0035V8.64949H34.0536ZM38.3975 9.24338C38.1909 9.24338 38.0877 9.18743 38.0877 9.07554V4.02752C38.0877 3.91276 38.1909 3.85538 38.3975 3.85538H38.4578C38.6615 3.85538 38.7633 3.91276 38.7633 4.02752V9.07554C38.7633 9.18743 38.6615 9.24338 38.4578 9.24338H38.3975ZM40.9211 9.23047C40.8408 9.23047 40.782 9.21182 40.7447 9.17452C40.7074 9.13723 40.6887 9.07985 40.6887 9.00238V4.10499C40.6887 4.02466 40.7074 3.96728 40.7447 3.93285C40.782 3.89555 40.8408 3.8769 40.9211 3.8769H43.5893C43.6438 3.8769 43.6825 3.89412 43.7055 3.92854C43.7313 3.96297 43.7442 4.02179 43.7442 4.10499V4.22979C43.7442 4.30725 43.7313 4.36463 43.7055 4.40193C43.6825 4.43923 43.6438 4.45788 43.5893 4.45788H41.3644V6.2008H43.3612C43.4157 6.2008 43.4544 6.21945 43.4774 6.25674C43.5032 6.29404 43.5161 6.35285 43.5161 6.43319V6.54938C43.5161 6.62971 43.5032 6.68853 43.4774 6.72583C43.4544 6.76025 43.4157 6.77747 43.3612 6.77747H41.3644V8.64949H43.5979C43.6524 8.64949 43.6911 8.66814 43.7141 8.70544C43.7399 8.73987 43.7528 8.79725 43.7528 8.87758V9.00238C43.7528 9.07985 43.7399 9.13723 43.7141 9.17452C43.6911 9.21182 43.6524 9.23047 43.5979 9.23047H40.9211ZM45.6222 9.24338C45.4157 9.24338 45.3124 9.18743 45.3124 9.07554V4.10499C45.3124 4.02466 45.331 3.96728 45.3683 3.93285C45.4056 3.89555 45.4645 3.8769 45.5448 3.8769H47.9548C48.0093 3.8769 48.048 3.89555 48.0709 3.93285C48.0939 3.96728 48.1054 4.02466 48.1054 4.10499V4.22979C48.1054 4.30725 48.0939 4.36463 48.0709 4.40193C48.048 4.43923 48.0093 4.45788 47.9548 4.45788H45.988V6.2008H47.817C47.8687 6.2008 47.9074 6.21945 47.9332 6.25674C47.9591 6.29404 47.972 6.35285 47.972 6.43319V6.54938C47.972 6.62971 47.9591 6.68853 47.9332 6.72583C47.9074 6.76025 47.8687 6.77747 47.817 6.77747H45.988V9.07554C45.988 9.18743 45.8862 9.24338 45.6825 9.24338H45.6222ZM50.9646 9.24338C50.7609 9.24338 50.6591 9.18743 50.6591 9.07554V6.48483L49.0582 4.1265C49.018 4.07199 48.9979 4.02609 48.9979 3.98879C48.9979 3.89985 49.1156 3.85538 49.3508 3.85538H49.4326C49.5187 3.85538 49.5875 3.86399 49.6391 3.8812C49.6937 3.89842 49.7353 3.92854 49.764 3.97158L51.0206 5.85221L52.303 3.96728C52.3489 3.89268 52.4637 3.85538 52.6473 3.85538H52.6989C52.8051 3.86112 52.8811 3.87547 52.927 3.89842C52.9758 3.9185 53.0002 3.94863 53.0002 3.98879C53.0002 4.01461 52.9787 4.06052 52.9356 4.1265L51.3347 6.50635V9.07554C51.3347 9.18743 51.2314 9.24338 51.0249 9.24338H50.9646Z" fill="black"/>
</svg>
