<svg width="149" height="38" viewBox="0 0 149 38" fill="none" xmlns="http://www.w3.org/2000/svg">
<path d="M43.5 19C43.5 29.2299 35.4286 37.5 25.5 37.5C15.5714 37.5 7.5 29.2299 7.5 19C7.5 8.77008 15.5714 0.5 25.5 0.5C35.4286 0.5 43.5 8.77008 43.5 19Z" fill="#DFF2C2" stroke="black"/>
<path d="M26.3391 20.3674C26.542 20.1801 26.5547 19.8638 26.3674 19.6609L23.3151 16.3542C23.1278 16.1513 22.8115 16.1387 22.6086 16.326C22.4057 16.5133 22.393 16.8296 22.5803 17.0325L25.2935 19.9717L22.3542 22.6849C22.1513 22.8722 22.1387 23.1885 22.326 23.3914C22.5133 23.5943 22.8296 23.607 23.0325 23.4197L26.3391 20.3674ZM0.980016 19.4996L25.98 20.4996L26.02 19.5004L1.01998 18.5004L0.980016 19.4996Z" fill="black"/>
<path d="M33.9346 28.1221C31.7536 28.1221 30.0934 27.4954 28.9541 26.2422C27.8148 24.9808 27.2451 23.0765 27.2451 20.5293C27.2451 15.2884 29.5848 12.668 34.2642 12.668C34.9478 12.668 35.611 12.7412 36.2539 12.8877C36.8968 13.026 37.4176 13.201 37.8164 13.4126C38.2152 13.6242 38.4146 13.8276 38.4146 14.0229C38.4146 14.145 38.3698 14.3078 38.2803 14.5112C38.1989 14.7147 38.1012 14.8937 37.9873 15.0483C37.8734 15.203 37.7716 15.2803 37.6821 15.2803C37.6414 15.2803 37.5275 15.2274 37.3403 15.1216C36.9172 14.8937 36.4736 14.7025 36.0098 14.5479C35.5459 14.3932 34.9803 14.3159 34.313 14.3159C32.4738 14.3159 31.1636 14.8245 30.3823 15.8418C29.6011 16.8509 29.2104 18.3483 29.2104 20.334C29.2104 22.2057 29.5726 23.6991 30.2969 24.814C31.0293 25.9207 32.2907 26.4741 34.0811 26.4741C34.6263 26.4741 35.1512 26.4497 35.6558 26.4009C36.1685 26.3439 36.5754 26.2747 36.8765 26.1934V21.811H34.3374C34.1828 21.811 34.0688 21.7622 33.9956 21.6646C33.9305 21.5588 33.8979 21.3919 33.8979 21.1641V20.8101C33.8979 20.5822 33.9305 20.4194 33.9956 20.3218C34.0688 20.216 34.1828 20.1631 34.3374 20.1631H38.1338C38.3617 20.1631 38.5285 20.216 38.6343 20.3218C38.7401 20.4194 38.793 20.5822 38.793 20.8101V26.5596C38.793 27.1211 38.3372 27.5239 37.4258 27.7681C36.5143 28.0041 35.3506 28.1221 33.9346 28.1221ZM44.8281 28.0366C44.2422 28.0366 43.9492 27.8779 43.9492 27.5605V13.4614C43.9492 13.2336 44.0021 13.0708 44.1079 12.9731C44.2137 12.8674 44.3805 12.8145 44.6084 12.8145H48.2583C49.9917 12.8145 51.2938 13.1196 52.1646 13.73C53.0435 14.3403 53.4829 15.3128 53.4829 16.6475C53.4829 17.5508 53.2632 18.3117 52.8237 18.9302C52.3924 19.5405 51.7821 20.0003 50.9927 20.3096V20.395C51.4159 20.5415 51.7617 20.8263 52.0303 21.2495C52.307 21.6646 52.6121 22.283 52.9458 23.105L54.6426 27.3896C54.6833 27.5361 54.7036 27.6379 54.7036 27.6948C54.7036 27.9227 54.3984 28.0366 53.7881 28.0366H53.5684C53.3486 28.0366 53.1574 28.0081 52.9946 27.9512C52.84 27.8861 52.7424 27.8006 52.7017 27.6948L51.0537 23.4346C50.8421 22.8812 50.5939 22.4499 50.3091 22.1406C50.0243 21.8314 49.6865 21.6157 49.2959 21.4937C48.9053 21.3716 48.4129 21.3105 47.8188 21.3105H45.8657V27.5605C45.8657 27.8779 45.5768 28.0366 44.999 28.0366H44.8281ZM48.7222 19.6626C49.2349 19.6626 49.7028 19.5405 50.126 19.2964C50.5573 19.0522 50.895 18.7267 51.1392 18.3198C51.3914 17.9048 51.5176 17.4653 51.5176 17.0015C51.5176 16.147 51.2572 15.5122 50.7363 15.0972C50.2155 14.674 49.4953 14.4624 48.5757 14.4624H45.8657V19.6626H48.7222ZM57.5527 28.0366C57.2272 28.0366 56.9912 28.0081 56.8447 27.9512C56.6982 27.8861 56.625 27.7925 56.625 27.6704C56.625 27.6134 56.6453 27.5158 56.686 27.3774L61.8252 13.1074C61.9066 12.8714 62.1955 12.7534 62.6919 12.7534H63.3267C63.8231 12.7534 64.112 12.8714 64.1934 13.1074L69.3325 27.3896C69.3732 27.4792 69.3936 27.5728 69.3936 27.6704C69.3936 27.9146 69.0884 28.0366 68.478 28.0366H68.2949C67.7904 28.0366 67.4974 27.9227 67.416 27.6948L66.1465 24.1304H59.7744L58.5293 27.6948C58.4561 27.9227 58.1672 28.0366 57.6626 28.0366H57.5527ZM65.5605 22.4824L63.29 16.0249C63.2249 15.8459 63.172 15.6424 63.1313 15.4146C63.0907 15.1867 63.054 14.967 63.0215 14.7554H62.9727C62.875 15.3006 62.7651 15.7238 62.6431 16.0249L60.3726 22.4824H65.5605ZM73.7441 28.0366C73.4349 28.0366 73.2111 28 73.0728 27.9268C72.9344 27.8454 72.8652 27.7233 72.8652 27.5605V13.2417C72.8652 12.9162 73.1582 12.7534 73.7441 12.7534H74.1958C74.4237 12.7534 74.6027 12.786 74.7329 12.8511C74.8713 12.9162 74.9933 13.022 75.0991 13.1685L82.0327 23.6299L82.6797 24.8506V13.2417C82.6797 12.9162 82.9645 12.7534 83.5342 12.7534H83.7051C84.2747 12.7534 84.5596 12.9162 84.5596 13.2417V27.5605C84.5596 27.7233 84.4904 27.8454 84.3521 27.9268C84.2137 28 83.998 28.0366 83.7051 28.0366H83.2656C83.0622 28.0366 82.8994 28.0122 82.7773 27.9634C82.6553 27.9146 82.5617 27.8372 82.4966 27.7314L75.3433 16.9404L74.7573 15.8174V27.5605C74.7573 27.8779 74.4684 28.0366 73.8906 28.0366H73.7441ZM90.5215 28C90.2936 28 90.1268 27.9471 90.021 27.8413C89.9152 27.7355 89.8623 27.5728 89.8623 27.353V13.4614C89.8623 13.2336 89.9152 13.0708 90.021 12.9731C90.1268 12.8674 90.2936 12.8145 90.5215 12.8145H94.9038C96.9383 12.8145 98.5659 13.4167 99.7866 14.6211C101.007 15.8255 101.618 17.7502 101.618 20.395C101.618 23.0562 101.007 24.9889 99.7866 26.1934C98.5659 27.3978 96.9383 28 94.9038 28H90.5215ZM94.7573 26.3521C96.2222 26.3521 97.4022 25.876 98.2974 24.9238C99.1925 23.9635 99.6401 22.4539 99.6401 20.395C99.6401 19.0116 99.4285 17.8804 99.0054 17.0015C98.5822 16.1144 98.0044 15.4715 97.272 15.0728C96.5396 14.6659 95.7013 14.4624 94.7573 14.4624H91.7788V26.3521H94.7573ZM107.079 28.0366C106.493 28.0366 106.2 27.8779 106.2 27.5605V13.2417C106.2 12.9162 106.493 12.7534 107.079 12.7534H107.25C107.828 12.7534 108.117 12.9162 108.117 13.2417V27.5605C108.117 27.8779 107.828 28.0366 107.25 28.0366H107.079ZM114.237 28C114.009 28 113.843 27.9471 113.737 27.8413C113.631 27.7355 113.578 27.5728 113.578 27.353V13.4614C113.578 13.2336 113.631 13.0708 113.737 12.9731C113.843 12.8674 114.009 12.8145 114.237 12.8145H121.806C121.96 12.8145 122.07 12.8633 122.135 12.9609C122.208 13.0586 122.245 13.2254 122.245 13.4614V13.8154C122.245 14.0352 122.208 14.1979 122.135 14.3037C122.07 14.4095 121.96 14.4624 121.806 14.4624H115.495V19.4062H121.159C121.313 19.4062 121.423 19.4591 121.488 19.5649C121.562 19.6707 121.598 19.8376 121.598 20.0654V20.395C121.598 20.6229 121.562 20.7897 121.488 20.8955C121.423 20.9932 121.313 21.042 121.159 21.042H115.495V26.3521H121.83C121.985 26.3521 122.095 26.4049 122.16 26.5107C122.233 26.6084 122.27 26.7712 122.27 26.999V27.353C122.27 27.5728 122.233 27.7355 122.16 27.8413C122.095 27.9471 121.985 28 121.83 28H114.237ZM127.572 28.0366C126.986 28.0366 126.693 27.8779 126.693 27.5605V13.4614C126.693 13.2336 126.746 13.0708 126.852 12.9731C126.958 12.8674 127.125 12.8145 127.353 12.8145H134.188C134.343 12.8145 134.453 12.8674 134.518 12.9731C134.583 13.0708 134.616 13.2336 134.616 13.4614V13.8154C134.616 14.0352 134.583 14.1979 134.518 14.3037C134.453 14.4095 134.343 14.4624 134.188 14.4624H128.61V19.4062H133.798C133.944 19.4062 134.054 19.4591 134.127 19.5649C134.201 19.6707 134.237 19.8376 134.237 20.0654V20.395C134.237 20.6229 134.201 20.7897 134.127 20.8955C134.054 20.9932 133.944 21.042 133.798 21.042H128.61V27.5605C128.61 27.8779 128.321 28.0366 127.743 28.0366H127.572ZM142.726 28.0366C142.148 28.0366 141.859 27.8779 141.859 27.5605V20.2119L137.318 13.5225C137.204 13.3678 137.147 13.2376 137.147 13.1318C137.147 12.8796 137.481 12.7534 138.148 12.7534H138.38C138.625 12.7534 138.82 12.7778 138.966 12.8267C139.121 12.8755 139.239 12.9609 139.32 13.083L142.885 18.4175L146.522 13.0708C146.653 12.8592 146.978 12.7534 147.499 12.7534H147.646C147.947 12.7697 148.162 12.8104 148.292 12.8755C148.431 12.9325 148.5 13.0179 148.5 13.1318C148.5 13.2051 148.439 13.3353 148.317 13.5225L143.776 20.2729V27.5605C143.776 27.8779 143.483 28.0366 142.897 28.0366H142.726Z" fill="black"/>
</svg>
